<svg width="411" height="649" viewBox="0 0 411 649" fill="none" xmlns="http://www.w3.org/2000/svg">
<path opacity="0.1" d="M29 549.397C29 549.397 90 533.277 169 574.25C248 615.223 334.333 542.009 332.667 530.926C331 519.843 390 530.926 390 530.926V630H29V549.397Z" fill="#88D61B"/>
<path opacity="0.1" d="M241 612.803C241.257 613.899 241.395 614.614 241.395 614.614L248.632 619C248.632 619 253.895 606.518 251.263 606.181C250.855 606.13 250.408 605.695 249.941 605C249.599 605.21 249.333 605.528 249.181 605.907C249.029 606.285 249 606.705 249.099 607.102C249.202 607.606 249.377 608.091 249.618 608.542C250.605 610.229 246.329 612.928 246.329 612.928C244.888 614.827 242.549 613.825 241 612.803Z" fill="black"/>
<path d="M249.846 607.444C249.388 605.475 251.796 604.155 253.148 605.633C253.492 606.003 253.794 606.413 254.046 606.854C255.381 609.244 265.397 611.293 267.4 610.61C269.404 609.927 276.415 609.244 274.745 614.366C273.076 619.488 243.028 627 243.028 627C243.028 627 239.69 622.22 240.023 618.805C240.218 616.533 240.218 614.248 240.023 611.976C240.023 611.976 244.698 616.415 247.035 613.342C247.035 613.342 251.375 610.61 250.373 608.903C250.128 608.446 249.95 607.955 249.846 607.444Z" fill="#DCE6F2"/>
<path opacity="0.1" d="M153 605.226L155.727 612L168 610.574C167.622 608.733 167.412 606.859 167.373 604.976C167.251 604.721 167.072 604.5 166.852 604.333C166.631 604.166 166.375 604.058 166.106 604.018C165.837 603.977 165.563 604.006 165.307 604.102C165.05 604.197 164.82 604.356 164.635 604.566C164.001 605.279 163.36 606.031 162.886 606.652C161.523 608.435 157.091 607.365 157.091 607.365C155.942 607.764 154.578 606.031 153.603 604.43C153.427 604.716 153.225 604.982 153 605.226Z" fill="black"/>
<path d="M164.632 605.36C164.838 605.145 165.1 604.988 165.391 604.904C165.682 604.82 165.991 604.812 166.286 604.882C166.58 604.952 166.85 605.097 167.067 605.301C167.284 605.506 167.44 605.762 167.519 606.044C168.146 608.391 169.522 611.423 172.52 612.57C177.693 614.55 184.935 617.85 182.521 620.82C180.107 623.79 171.83 626.43 164.588 624.12C157.346 621.81 147 616.2 147 616.2L152.173 603C152.173 603 154.932 608.61 157.001 607.95C157.001 607.95 161.484 608.94 162.864 607.29C163.344 606.716 163.992 606.021 164.632 605.36Z" fill="#DCE6F2"/>
<path d="M41.2204 629.972C41.2204 629.972 30.1278 610.196 43.9095 594.443C57.6912 578.69 73.8258 587.404 73.8258 587.404C73.8258 587.404 93.9941 596.789 89.2882 619.246C89.2882 619.246 86.5991 630.642 78.5318 629.972H41.2204Z" fill="#88D61B"/>
<path opacity="0.2" d="M41.2204 629.972C41.2204 629.972 30.1278 610.196 43.9095 594.443C57.6912 578.69 73.8258 587.404 73.8258 587.404C73.8258 587.404 93.9941 596.789 89.2882 619.246C89.2882 619.246 86.5991 630.642 78.5318 629.972H41.2204Z" fill="white"/>
<path d="M58 630L70 593" stroke="#535461" stroke-miterlimit="10"/>
<path d="M81 599C81 599 74.7932 595.988 68.5633 597.666C68.5633 597.666 65.3333 589.375 58 588" stroke="#535461" stroke-miterlimit="10"/>
<path d="M84 612C84 612 73.4455 604.387 65.7227 606.697C65.7227 606.697 57 596.366 51 597.031" stroke="#535461" stroke-miterlimit="10"/>
<path d="M82 625C82 625 72.897 618.476 61.6394 618.905C61.6394 618.905 53.0727 608.667 45 608" stroke="#535461" stroke-miterlimit="10"/>
<path d="M63 630C61.6268 629.365 60.194 628.863 58.7217 628.499C58.7217 628.499 51.8188 619.711 38 622.573" stroke="#535461" stroke-miterlimit="10"/>
<path d="M159.843 630C159.843 630 170.689 612.075 143.738 585.519C116.787 558.963 118.431 553.983 120.731 550C120.731 550 99.0393 552.656 103.641 585.519C108.242 618.382 127.962 630 127.962 630H159.843Z" fill="#88D61B"/>
<path d="M145 630C145 630 136.65 606.432 124.041 592.158C111.431 577.884 113.816 554.315 120.292 550" stroke="#535461" stroke-width="2" stroke-miterlimit="10"/>
<path d="M251.945 477.526C248.391 481.139 248.157 486.681 248.157 486.681C248.157 486.681 253.687 486.366 257.241 482.753C260.796 479.14 261.029 473.598 261.029 473.598C261.029 473.598 255.5 473.913 251.945 477.526Z" fill="#A4CA63"/>
<path d="M40.4045 532.609C36.8499 536.222 36.6162 541.764 36.6162 541.764C36.6162 541.764 42.1456 541.449 45.7002 537.836C49.2547 534.223 49.4884 528.681 49.4884 528.681C49.4884 528.681 43.959 528.996 40.4045 532.609Z" fill="#FC6681"/>
<path d="M322.003 509.405C317.309 514.375 317 522 317 522C317 522 324.303 521.566 328.997 516.595C333.691 511.625 334 504 334 504C334 504 326.697 504.434 322.003 509.405Z" fill="#88D61B"/>
<path d="M80.9999 503.21C74.3725 500.527 67 503.143 67 503.143C67 503.143 70.3727 510.108 77.0001 512.79C83.6275 515.473 91 512.857 91 512.857C91 512.857 87.6273 505.893 80.9999 503.21Z" fill="#88D61B"/>
<path d="M123.14 533.232C120.432 528.945 115.096 527.461 115.096 527.461C115.096 527.461 114.149 532.926 116.857 537.213C119.564 541.5 124.9 542.984 124.9 542.984C124.9 542.984 125.847 537.518 123.14 533.232Z" fill="#FFD037"/>
<path d="M253 521C254.657 521 256 519.657 256 518C256 516.343 254.657 515 253 515C251.343 515 250 516.343 250 518C250 519.657 251.343 521 253 521Z" fill="#FC6681"/>
<path d="M259.5 552C260.881 552 262 550.657 262 549C262 547.343 260.881 546 259.5 546C258.119 546 257 547.343 257 549C257 550.657 258.119 552 259.5 552Z" fill="#FC6681"/>
<path d="M198.426 558.699C198.426 558.699 187.339 546.343 183.307 561.704C179.275 577.066 176.923 579.07 168.86 575.063C160.797 571.055 152.398 590.091 172.22 603.783C192.042 617.475 180.955 631 180.955 631H251.845C251.845 631 261.252 603.783 240.758 594.432C220.264 585.081 220.936 578.068 221.608 568.717C222.279 559.367 198.426 558.699 198.426 558.699Z" fill="#8DC038"/>
<path d="M189 554C189 554 234.292 614.302 218.754 631" stroke="#535461" stroke-width="2" stroke-miterlimit="10"/>
<path d="M177 576.135C177 576.135 187.996 585.353 205.973 580.676C223.949 575.999 219.517 564 219.517 564" stroke="#535461" stroke-width="2" stroke-miterlimit="10"/>
<path d="M251 605C251 605 227.485 593.552 215.663 597.822C184.883 608.937 162 579 162 579" stroke="#535461" stroke-width="2" stroke-miterlimit="10"/>
<path d="M182.629 630C182.629 630 196.862 619.3 178.988 581.849C178.988 581.849 155.156 552.088 178.988 524C178.988 524 127.021 525.338 128.014 574.158C129.007 622.978 153.998 630 153.998 630H182.629Z" fill="#8DC038"/>
<path d="M169.305 630C169.305 630 165.704 604.252 156.065 588.536C154.163 585.361 152.794 581.891 152.015 578.268C148.792 564.013 153.386 549.107 163.794 538.905L179 524" stroke="#535461" stroke-width="2" stroke-miterlimit="10"/>
<path d="M311.361 629.386C311.361 629.386 262.206 618.53 324.75 555C324.75 555 351.71 580.244 341.819 611.625C337.843 624.242 325.05 632.031 312.094 629.536C311.851 629.489 311.607 629.439 311.361 629.386Z" fill="#88D61B"/>
<path opacity="0.4" d="M311.259 629.386C310.177 629.148 263.013 617.454 324.689 555C324.689 555 351.734 580.244 341.812 611.625C337.823 624.242 324.991 632.031 311.994 629.536C311.751 629.489 311.506 629.439 311.259 629.386Z" fill="white"/>
<path d="M312 630C312 630 338.758 591.227 325.133 555" stroke="#535461" stroke-miterlimit="10"/>
<path d="M108.361 629.386C108.361 629.386 59.2063 618.53 121.749 555C121.749 555 148.71 580.244 138.819 611.625C134.843 624.242 122.05 632.031 109.094 629.536C108.851 629.489 108.607 629.439 108.361 629.386Z" fill="#88D61B"/>
<path opacity="0.4" d="M108.259 629.386C107.177 629.148 60.0128 617.454 121.689 555C121.689 555 148.734 580.244 138.812 611.625C134.823 624.242 121.991 632.031 108.994 629.536C108.751 629.489 108.506 629.439 108.259 629.386Z" fill="white"/>
<path d="M109 630C109 630 134.184 591.227 121.361 555" stroke="#535461" stroke-miterlimit="10"/>
<path d="M218.361 629.386C218.361 629.386 169.206 618.53 231.75 555C231.75 555 258.71 580.244 248.819 611.625C244.843 624.242 232.05 632.031 219.094 629.536C218.851 629.489 218.607 629.439 218.361 629.386Z" fill="#88D61B"/>
<path opacity="0.4" d="M218.259 629.386C217.177 629.148 170.013 617.454 231.689 555C231.689 555 258.734 580.244 248.812 611.625C244.823 624.242 231.991 632.031 218.994 629.536C218.751 629.489 218.506 629.439 218.259 629.386Z" fill="white"/>
<path d="M219 630C219 630 244.184 591.227 231.361 555" stroke="#535461" stroke-miterlimit="10"/>
<path d="M369.361 629.386C369.361 629.386 320.206 618.53 382.749 555C382.749 555 409.71 580.244 399.819 611.625C395.843 624.242 383.05 632.031 370.094 629.536C369.851 629.489 369.607 629.439 369.361 629.386Z" fill="#88D61B"/>
<path opacity="0.4" d="M369.259 629.386C368.177 629.148 321.013 617.454 382.689 555C382.689 555 409.734 580.244 399.812 611.625C395.823 624.242 382.991 632.031 369.994 629.536C369.751 629.489 369.506 629.439 369.259 629.386Z" fill="white"/>
<path d="M272.967 632.102C272.967 632.102 291.714 603.815 282.168 577.385" stroke="#535461" stroke-miterlimit="10"/>
<path d="M277.361 629.386C277.361 629.386 228.206 618.53 290.75 555C290.75 555 317.71 580.244 307.819 611.625C303.843 624.242 291.05 632.031 278.094 629.536C277.851 629.489 277.607 629.439 277.361 629.386Z" fill="#88D61B"/>
<path opacity="0.4" d="M277.259 629.386C276.177 629.148 229.013 617.454 290.689 555C290.689 555 317.734 580.244 307.812 611.625C303.823 624.242 290.991 632.031 277.994 629.536C277.751 629.489 277.506 629.439 277.259 629.386Z" fill="white"/>
<path d="M278 630C278 630 304.758 591.227 291.133 555" stroke="#535461" stroke-miterlimit="10"/>
<path d="M106.634 625.707C108.098 624.609 109.471 623.314 109.893 621.738C110.11 620.904 109.995 620.019 109.571 619.267C109.147 618.515 108.447 617.952 107.615 617.696C105.524 617.051 103.289 618.221 101.595 619.402C99.9003 620.583 97.9584 621.931 95.7409 621.681C98.0383 620.04 99.1304 617.373 98.497 614.951C98.3889 614.428 98.1213 613.951 97.7305 613.584C96.5695 612.582 94.4649 613.012 93.0748 613.801C88.6541 616.311 87.4206 621.156 87.3965 625.518C86.9507 623.944 87.3262 622.305 87.3152 620.691C87.3042 619.078 86.7562 617.289 85.0692 616.422C84.0675 615.907 82.8302 615.807 81.6435 615.772C79.6564 615.713 77.4431 615.874 76.086 617.047C74.3998 618.504 74.8371 620.949 76.3041 622.553C77.771 624.158 80.0024 625.163 82.0563 626.271C83.6216 627.115 85.2047 628.102 86.167 629.435C86.2896 629.611 86.3918 629.801 86.4717 630H98.9295C101.667 628.889 104.255 627.447 106.634 625.707Z" fill="#88D61B"/>
<path d="M313.634 625.707C315.098 624.609 316.471 623.314 316.893 621.738C317.11 620.904 316.995 620.019 316.571 619.267C316.147 618.515 315.447 617.952 314.615 617.696C312.524 617.051 310.289 618.221 308.595 619.402C306.9 620.583 304.958 621.931 302.741 621.681C305.038 620.04 306.13 617.373 305.497 614.951C305.389 614.428 305.121 613.951 304.73 613.584C303.569 612.582 301.465 613.012 300.075 613.801C295.654 616.311 294.421 621.156 294.397 625.518C293.951 623.944 294.326 622.305 294.315 620.691C294.304 619.078 293.756 617.289 292.069 616.422C291.068 615.907 289.83 615.807 288.644 615.772C286.656 615.713 284.443 615.874 283.086 617.047C281.4 618.504 281.837 620.949 283.304 622.553C284.771 624.158 287.002 625.163 289.056 626.271C290.622 627.115 292.205 628.102 293.167 629.435C293.29 629.611 293.392 629.801 293.472 630H305.93C308.667 628.889 311.255 627.447 313.634 625.707Z" fill="#A4CA63"/>
<path d="M246.773 602.188C257.619 622.346 280.639 631 280.639 631C280.639 631 286.073 606.97 275.227 586.812C264.381 566.654 241.361 558 241.361 558C241.361 558 235.927 582.03 246.773 602.188Z" fill="#3F3D56"/>
<path d="M254.225 595.211C273.555 606.94 281 630.238 281 630.238C281 630.238 257.105 634.519 237.775 622.789C218.445 611.06 211 587.762 211 587.762C211 587.762 234.896 583.481 254.225 595.211Z" fill="#88D61B"/>
<path d="M183.773 602.188C194.619 622.346 217.639 631 217.639 631C217.639 631 223.073 606.97 212.227 586.812C201.381 566.654 178.361 558 178.361 558C178.361 558 172.927 582.03 183.773 602.188Z" fill="#3F3D56"/>
<path d="M191.843 595.211C211.449 606.94 219 630.238 219 630.238C219 630.238 194.763 634.519 175.157 622.789C155.551 611.06 148 587.762 148 587.762C148 587.762 172.237 583.481 191.843 595.211Z" fill="#FFD037"/>
<path d="M119.624 534.323C100.854 562.214 105.513 598 105.513 598C105.513 598 140.605 588.567 159.376 560.677C178.146 532.786 173.487 497 173.487 497C173.487 497 138.395 506.433 119.624 534.323Z" fill="#3F3D56"/>
<path d="M133.893 539.294C132.059 572.983 106.678 599 106.678 599C106.678 599 84.2723 570.395 86.1068 536.706C87.9412 503.017 113.322 477 113.322 477C113.322 477 135.728 505.605 133.893 539.294Z" fill="#FC6681"/>
<path d="M385.984 577.642C386.686 615.748 364.326 629.469 336.443 629.985C335.795 629.997 335.15 630.002 334.509 629.999C333.216 629.995 331.936 629.96 330.669 629.893C305.471 628.573 285.66 614.949 285.007 579.511C284.332 542.837 330.252 495.69 333.697 492.203C333.7 492.203 333.7 492.203 333.703 492.199C333.834 492.066 333.901 492 333.901 492C333.901 492 385.282 539.54 385.984 577.642Z" fill="#A4CA63"/>
<path d="M370.951 491.045C375.945 449.222 359.868 413.68 335.041 411.659C310.214 409.638 286.038 441.904 281.044 483.727C276.049 525.549 292.126 561.091 316.954 563.112C341.781 565.133 365.956 532.868 370.951 491.045Z" fill="#FC6681"/>
<path d="M314.601 600.849L340.837 570.599L314.202 604.407L313.782 608.128C312.167 607.938 310.573 607.711 309 607.447L316.079 559.824L316.095 559.452L316.145 559.386L316.815 554.886L297.038 516.55L317.21 551.505L317.176 552.469L322.525 516.488L306.208 477.268L323.378 510.157L332.526 435.372L332.557 435.123L332.534 435.369L326.54 494.462L348.588 472.915L325.966 499.545L322.338 531.874L343.815 502.569L321.808 536.627L319.791 554.604L350.782 513.917L319.084 560.875L314.601 600.849Z" fill="#3F3D56"/>
<path d="M334.385 624.191L352.282 597.994L334.391 627.03L334.396 630C333.11 629.996 331.837 629.961 330.576 629.894L331.857 591.735L331.836 591.44L331.869 591.384L331.991 587.778L313 559.356L331.997 585.078L332.057 585.841L333.024 557.011L316.673 527.579L333.126 551.945L333.588 492.199L333.591 492L333.594 492.196L334.198 539.294L349.588 520.332L334.205 543.351L334.261 569.15L348.504 544.126L334.272 572.942L334.304 587.288L355 552.439L334.312 592.292L334.385 624.191Z" fill="#3F3D56"/>
<path d="M306.984 577.642C307.686 615.748 285.326 629.469 257.443 629.985C256.795 629.997 256.15 630.002 255.509 629.999C254.216 629.995 252.936 629.96 251.669 629.893C226.471 628.573 206.66 614.949 206.007 579.511C205.332 542.837 251.252 495.69 254.697 492.203C254.7 492.203 254.7 492.203 254.703 492.199C254.834 492.066 254.901 492 254.901 492C254.901 492 306.282 539.54 306.984 577.642Z" fill="#E8EB82"/>
<path d="M80.5 476C100.658 476 117 459.658 117 439.5C117 419.342 100.658 403 80.5 403C60.3416 403 44 419.342 44 439.5C44 459.658 60.3416 476 80.5 476Z" fill="#FFD037"/>
<path opacity="0.2" d="M107.76 415C111.162 422.861 111.623 431.661 109.062 439.827C106.501 447.993 101.085 454.994 93.7807 459.577C86.4767 464.161 77.7611 466.029 69.1913 464.848C60.6214 463.667 52.7558 459.514 47 453.131C49.0778 457.933 52.1875 462.232 56.1138 465.73C60.0401 469.227 64.689 471.84 69.7385 473.385C74.788 474.931 80.1174 475.374 85.3573 474.683C90.5972 473.992 95.6224 472.184 100.085 469.384C104.547 466.583 108.34 462.858 111.2 458.465C114.061 454.073 115.92 449.118 116.651 443.945C117.381 438.772 116.964 433.504 115.429 428.506C113.894 423.508 111.277 418.9 107.76 415Z" fill="black"/>
<path d="M80.47 428.285H80.6548L83.982 619.049H76.958L80.47 428.285Z" fill="#3F3D56"/>
<path d="M92.7214 532.193L91.1714 529.249L80.0489 535.105L81.599 538.049L92.7214 532.193Z" fill="#3F3D56"/>
<path d="M255.385 624.191L273.282 597.994L255.391 627.03L255.396 630C254.11 629.996 252.837 629.961 251.576 629.894L252.857 591.735L252.836 591.44L252.869 591.384L252.991 587.778L234 559.356L252.997 585.078L253.057 585.841L254.024 557.011L237.673 527.579L254.126 551.945L254.588 492.199L254.591 492L254.594 492.196L255.198 539.294L270.588 520.332L255.205 543.351L255.261 569.15L269.504 544.126L255.272 572.942L255.304 587.288L276 552.439L255.312 592.292L255.385 624.191Z" fill="#3F3D56"/>
<path d="M397.984 578.642C398.686 616.748 376.326 630.469 348.443 630.985C347.795 630.997 347.15 631.002 346.509 630.999C345.216 630.995 343.936 630.96 342.669 630.893C317.471 629.573 297.66 615.949 297.007 580.511C296.332 543.837 342.252 496.69 345.697 493.203C345.7 493.203 345.7 493.203 345.703 493.199C345.834 493.066 345.901 493 345.901 493C345.901 493 397.282 540.54 397.984 578.642Z" fill="#3F3D56"/>
<path d="M346.385 625.191L364.282 598.994L346.391 628.03L346.396 631C345.11 630.996 343.837 630.961 342.576 630.894L343.857 592.735L343.836 592.44L343.869 592.384L343.991 588.778L325 560.356L343.997 586.078L344.057 586.841L345.024 558.011L328.673 528.579L345.126 552.945L345.588 493.199L345.591 493L345.594 493.196L346.198 540.294L361.588 521.332L346.205 544.351L346.261 570.15L360.504 545.126L346.272 573.942L346.304 588.288L367 553.439L346.312 593.292L346.385 625.191Z" fill="#FC6681"/>
<path d="M121.984 577.642C122.686 615.748 100.326 629.469 72.4428 629.985C71.7951 629.997 71.1505 630.002 70.5088 629.999C69.216 629.995 67.9362 629.96 66.6692 629.893C41.4712 628.573 21.6603 614.949 21.0074 579.511C20.3317 542.837 66.2519 495.69 69.6966 492.203C69.6997 492.203 69.6997 492.203 69.7028 492.199C69.8336 492.066 69.9006 492 69.9006 492C69.9006 492 121.282 539.54 121.984 577.642Z" fill="#A4CA63"/>
<path d="M70.3851 624.191L88.2822 597.994L70.3909 627.03L70.396 630C69.1099 629.996 67.8366 629.961 66.5761 629.894L67.8566 591.735L67.8358 591.44L67.8687 591.384L67.9907 587.778L49 559.356L67.9967 585.078L68.057 585.841L69.0243 557.011L52.6734 527.579L69.1257 551.945L69.5881 492.199L69.5906 492L69.5941 492.196L70.1984 539.294L85.5882 520.332L70.2049 543.351L70.2614 569.15L84.5039 544.126L70.2723 572.942L70.304 587.288L91 552.439L70.3124 592.292L70.3851 624.191Z" fill="#3F3D56"/>
<path d="M327 636C314.994 633.948 303.448 632.186 292.361 630.713L296.744 622.141C295.266 621.623 288.773 626.532 288.773 626.532L294.525 601.648C287.092 602.552 283.313 627.961 283.313 627.961L275.008 619.37L279.029 629.028C245.098 624.997 215.793 623.502 191.145 623.448L194.896 616.111C193.418 615.593 186.925 620.502 186.925 620.502L192.677 595.618C185.244 596.523 181.465 621.931 181.465 621.931L173.161 613.34L177.419 623.57C156.755 623.987 139.905 625.409 126.898 627.032C130.692 615.602 143.582 604.731 143.582 604.731C133.738 607.684 128.575 612.633 125.877 617.247C125.636 593.663 129.523 570.221 137.36 548C137.36 548 117.014 592.665 119.61 622.646L119.92 627.97C102.672 630.461 94 633.054 94 633.054L327 636Z" fill="#3F3D56"/>
<path d="M197.807 545.891C198.594 545.162 198.028 543.27 196.542 541.663C195.056 540.056 193.213 539.344 192.426 540.073C191.638 540.801 192.205 542.694 193.691 544.3C195.177 545.907 197.019 546.619 197.807 545.891Z" fill="#3F3D56"/>
<path d="M203.007 533.394C206.153 533.394 208.704 530.843 208.704 527.697C208.704 524.551 206.153 522 203.007 522C199.86 522 197.31 524.551 197.31 527.697C197.31 530.843 199.86 533.394 203.007 533.394Z" fill="#8DC038"/>
<path d="M212.574 564C210.019 562.842 207.639 561.332 205.504 559.514C201.192 555.787 198.062 550.437 197.829 544.656C197.605 539.107 199.956 533.891 202.443 529.07C202.756 528.463 203.072 527.858 203.392 527.255C203.513 527.025 203.89 527.179 203.767 527.411C201.187 532.308 198.48 537.482 198.236 543.128C197.978 549.079 200.885 554.752 205.212 558.711C207.444 560.72 209.972 562.374 212.707 563.614" fill="#3F3D56"/>
<path d="M204.747 557.858C205.812 557.725 206.454 555.857 206.182 553.685C205.91 551.514 204.827 549.861 203.763 549.995C202.699 550.128 202.056 551.996 202.328 554.168C202.6 556.339 203.683 557.992 204.747 557.858Z" fill="#3F3D56"/>
<path d="M366 634C353.994 631.948 342.448 630.186 331.361 628.713L335.744 620.141C334.266 619.623 327.773 624.532 327.773 624.532L333.525 599.648C326.092 600.552 322.313 625.961 322.313 625.961L314.008 617.37L318.029 627.028C284.098 622.997 254.793 621.502 230.145 621.448L233.896 614.111C232.418 613.593 225.925 618.502 225.925 618.502L231.677 593.618C224.244 594.523 220.465 619.931 220.465 619.931L212.161 611.34L216.419 621.57C195.755 621.987 178.905 623.409 165.898 625.032C169.692 613.602 182.582 602.731 182.582 602.731C172.738 605.684 167.575 610.633 164.877 615.247C164.636 591.663 168.523 568.221 176.36 546C176.36 546 156.014 590.665 158.61 620.646L158.92 625.97C141.672 628.461 133 631.054 133 631.054L366 634Z" fill="#3F3D56"/>
<path d="M411 637C398.994 634.971 387.448 633.229 376.361 631.773L380.744 623.298C379.266 622.786 372.773 627.64 372.773 627.64L378.525 603.038C371.092 603.932 367.313 629.052 367.313 629.052L359.008 620.559L363.029 630.107C329.097 626.122 299.793 624.644 275.145 624.591L278.896 617.337C277.418 616.825 270.925 621.679 270.925 621.679L276.677 597.077C269.244 597.971 265.465 623.091 265.465 623.091L257.161 614.598L261.419 624.711C240.755 625.123 223.905 626.53 210.898 628.133C214.692 616.833 227.582 606.086 227.582 606.086C217.738 609.006 212.575 613.899 209.877 618.46C209.636 595.144 213.523 571.968 221.36 550C221.36 550 201.014 594.157 203.61 623.798L203.92 629.061C186.672 631.524 178 634.087 178 634.087L288 647L411 637Z" fill="#3F3D56"/>
<path d="M249.304 633.968C237.246 632.242 225.656 630.794 214.534 629.623L218.682 620.935C217.191 620.457 210.834 625.541 210.834 625.541L215.907 600.51C208.502 601.616 205.414 627.117 205.414 627.117L196.88 618.756L201.161 628.301C167.133 625.192 137.799 624.494 113.158 625.109L116.708 617.673C115.217 617.196 108.86 622.279 108.86 622.279L113.934 597.248C106.528 598.354 103.44 623.855 103.44 623.855L94.9058 615.494L99.4402 625.603C78.7956 626.581 61.9897 628.461 49.0322 630.436C52.5146 618.907 65.1037 607.69 65.1037 607.69C55.3442 610.91 50.3172 615.997 47.7454 620.683C46.864 597.114 50.1133 573.575 57.3437 551.15C57.3437 551.15 38.2182 596.35 41.6275 626.25L42.0824 631.563C24.9078 634.522 16.3095 637.349 16.3095 637.349L249.304 642L249.304 633.968Z" fill="#3F3D56"/>
<path d="M351.756 177.466L360.962 170.103C353.81 169.314 350.872 173.214 349.669 176.301C344.082 173.981 338 177.022 338 177.022L356.419 183.709C355.49 181.227 353.872 179.061 351.756 177.466Z" fill="#3F3D56"/>
<path d="M0 74C0 74 14.3131 28.3067 68.6426 32.4287C103.958 35.1183 119.035 25.3049 125.244 18.117C132.974 9.19296 142.746 3.06117 153.442 1.0429C170.863 -2.24534 195.727 0.893248 221.103 30.3677C267.837 84.6515 308.148 64.0369 309.901 64.0369C311.653 64.0369 321 74 321 74H0Z" fill="url(#paint0_linear)"/>
<path d="M171.756 25.4659L180.962 18.1031C173.81 17.3141 170.872 21.2144 169.669 24.3015C164.082 21.9815 158 25.0219 158 25.0219L176.419 31.7086C175.49 29.2267 173.872 27.0612 171.756 25.4659Z" fill="#3F3D56"/>
<path d="M242.392 617.631C242.392 617.631 242.853 607.983 252.293 609.104L242.392 617.631Z" fill="#3F3D56"/>
<path d="M239.725 608.449C242.334 608.449 244.449 606.334 244.449 603.725C244.449 601.115 242.334 599 239.725 599C237.115 599 235 601.115 235 603.725C235 606.334 237.115 608.449 239.725 608.449Z" fill="#FFD037"/>
<path d="M240.29 611.681H238.956V621.016H240.29V611.681Z" fill="#3F3D56"/>
<path d="M89.3921 623.631C89.3921 623.631 89.8526 613.983 99.2926 615.104L89.3921 623.631Z" fill="#3F3D56"/>
<path d="M86.7247 614.449C89.3341 614.449 91.4494 612.334 91.4494 609.725C91.4494 607.115 89.3341 605 86.7247 605C84.1153 605 82 607.115 82 609.725C82 612.334 84.1153 614.449 86.7247 614.449Z" fill="#FFD037"/>
<path d="M87.2897 617.681H85.9561V627.016H87.2897V617.681Z" fill="#3F3D56"/>
<path d="M76.2042 371.771C73.4968 367.484 68.1604 366 68.1604 366C68.1604 366 67.2136 371.465 69.921 375.752C72.6284 380.039 77.9648 381.523 77.9648 381.523C77.9648 381.523 78.9116 376.058 76.2042 371.771Z" fill="#FFD037"/>
<path d="M38.7882 489.928C35.2337 493.541 35 499.084 35 499.084C35 499.084 40.5294 498.768 44.084 495.155C47.6385 491.542 47.8722 486 47.8722 486C47.8722 486 42.3428 486.315 38.7882 489.928Z" fill="#FC6681"/>
<path d="M91 42C101.493 42 110 33.4934 110 23C110 12.5066 101.493 4 91 4C80.5066 4 72 12.5066 72 23C72 33.4934 80.5066 42 91 42Z" fill="#FC6681"/>
<path d="M331.746 373.916C339.247 381.217 340.163 392.442 340.163 392.442C340.163 392.442 328.918 391.828 321.417 384.526C313.916 377.224 313 366 313 366C313 366 324.245 366.614 331.746 373.916Z" fill="#A4CA63"/>
<path d="M376 46C378.209 46 380 44.433 380 42.5C380 40.567 378.209 39 376 39C373.791 39 372 40.567 372 42.5C372 44.433 373.791 46 376 46Z" fill="#CFCCE0"/>
<path d="M128.5 58C130.433 58 132 56.433 132 54.5C132 52.567 130.433 51 128.5 51C126.567 51 125 52.567 125 54.5C125 56.433 126.567 58 128.5 58Z" fill="#CFCCE0"/>
<path d="M68.5 100C70.433 100 72 98.2091 72 96C72 93.7909 70.433 92 68.5 92C66.567 92 65 93.7909 65 96C65 98.2091 66.567 100 68.5 100Z" fill="#CFCCE0"/>
<defs>
<linearGradient id="paint0_linear" x1="160.5" y1="0" x2="160.5" y2="74" gradientUnits="userSpaceOnUse">
<stop stop-color="#E6EEF9"/>
<stop offset="1" stop-color="#E6EEF9" stop-opacity="0"/>
</linearGradient>
</defs>
</svg>
