<svg xmlns="http://www.w3.org/2000/svg" width="375" height="396" fill="none" viewBox="0 0 375 396">
    <mask id="990k7cpsla" width="375" height="396" x="0" y="0" maskUnits="userSpaceOnUse">
        <path fill="#C4C4C4" d="M0 0H375V396H0z"/>
    </mask>
    <g mask="url(#990k7cpsla)">
        <path fill="url(#paint0_linear)" d="M159.369 45.706c47.184-1.468 92.159-15.105 135.04-30.021C337.29.768 379.791-15.763 425.87-23.667c29.627-5.09 63.509-5.805 87.375 8.414 22.972 13.68 30.392 37.295 34.383 59.206 3.002 16.488 4.744 33.837-3.462 49.276-5.713 10.713-15.85 19.721-22.864 29.985-24.395 35.712-7.149 79.753 19.293 114.652 12.4 16.379 26.787 31.963 36.355 49.379 9.568 17.416 14 37.368 5.624 55.13-8.301 17.592-28.074 30.828-49.501 40.128-43.518 18.872-94.795 24.271-144.798 27.364-110.685 6.776-221.967 3.84-332.944.904-41.072-1.092-82.326-2.19-122.727-7.886-22.437-3.16-45.605-8.171-61.896-20.267-20.674-15.36-25.804-41.359-11.946-60.62 23.243-32.296 87.503-40.322 103.753-74.984 8.938-19.078-.244-40.335-13.241-58.03-27.871-37.956-74.601-71.26-77.061-114.651-1.694-29.804 20.769-59.643 55.505-73.747C-35.879-14.21 14.605-12.341 41.46 12.112c27.654 25.193 76.254 34.886 117.909 33.594z" opacity=".1"/>
        <path fill="url(#paint1_linear)" d="M458.197 280.916c-18.165 23.2-11.108 57.091.435 84.234 3.865 9.087 8.236 18.702 6.605 28.448-1.994 11.917-12.582 20.631-23.699 25.249-20.266 8.419-44.517 6.413-63.138-5.223-16.092-10.056-27.617-26.41-43.984-36.008-27.39-16.063-62.253-9.997-91.995 1.068-21.042 7.828-44.046 18.008-64.954 9.827-14.713-5.756-24.882-19.767-30.423-34.618-2.675-7.171-4.617-14.932-9.726-20.615-3.037-3.379-7-5.778-11.061-7.8-37.076-18.466-83.903-8.577-119.915-29.058-24.322-13.833-39.892-39.925-46.786-67.133-6.894-27.207-6.091-55.736-4.34-83.756 1.243-19.912 3.475-41.171 16.141-56.54 13.4-16.257 36.395-22.302 57.18-19.212 20.785 3.09 39.625 14.103 56.2 27.075 20.714 16.212 39.924 36.4 65.357 42.968 17.32 4.472 35.54 2.026 53.403 1.178 29.863-1.416 59.739 1.734 89.437 5.182 28.432 3.302 57.068 6.936 84.153 16.226 19.168 6.575 34.534 18.509 52.633 26.847 11.798 5.435 24.663 6.935 35.832 13.857 13.76 8.528 26.375 23.359 22.849 40.714-3.352 16.501-20.563 24.777-30.204 37.09z" opacity=".1"/>
        <path fill="#88D61B" d="M299.885 289.671c-11.273-14.376-6.893-35.38.27-52.2 2.398-5.632 5.111-11.591 4.099-17.63-1.238-7.385-7.808-12.786-14.707-15.648-12.576-5.217-27.626-3.974-39.181 3.237-9.986 6.232-17.138 16.367-27.295 22.315-16.997 9.954-38.631 6.195-57.088-.662-13.058-4.851-27.334-11.16-40.308-6.09-9.13 3.568-15.441 12.25-18.879 21.454-1.661 4.443-2.866 9.253-6.036 12.775-1.885 2.094-4.344 3.581-6.864 4.834-23.008 11.444-52.067 5.315-74.415 18.008-15.093 8.572-24.755 24.742-29.033 41.603-4.278 16.861-3.78 34.541-2.694 51.905.772 12.34 2.157 25.515 10.017 35.039 8.315 10.075 22.585 13.821 35.484 11.906 12.898-1.915 24.59-8.74 34.875-16.779 12.854-10.047 24.776-22.558 40.558-26.627 10.749-2.772 22.055-1.256 33.14-.731 18.532.878 37.072-1.074 55.501-3.211 17.644-2.046 35.414-4.298 52.222-10.056 11.895-4.074 21.431-11.47 32.662-16.637 7.321-3.368 15.305-4.298 22.236-8.588 8.539-5.284 16.367-14.476 14.179-25.231-2.08-10.226-12.76-15.355-18.743-22.986z" opacity=".1"/>
    </g>
    <defs>
        <linearGradient id="paint0_linear" x1="219" x2="219" y1="-27" y2="414" gradientUnits="userSpaceOnUse">
            <stop stop-color="#FFD037"/>
            <stop offset="1" stop-color="#FFD037" stop-opacity="0"/>
        </linearGradient>
        <linearGradient id="paint1_linear" x1="221.5" x2="221.5" y1="69" y2="424" gradientUnits="userSpaceOnUse">
            <stop stop-color="#88D61B"/>
            <stop offset="1" stop-color="#88D61B" stop-opacity="0"/>
        </linearGradient>
    </defs>
</svg>
